<?xml version="1.0" encoding="UTF-8"?>
<!DOCTYPE svg PUBLIC "-//W3C//DTD SVG 1.1//EN" "http://www.w3.org/Graphics/SVG/1.1/DTD/svg11.dtd">
<svg width="166px" height="225px" viewBox="0 0 768 225" version="1.1" xmlns="http://www.w3.org/2000/svg">
  <g stroke="none" strokeWidth="1" fill="none" fillRule="evenodd" transform="translate(-216.000000, -388.000000)">
      <g transform="translate(216.000000, 388.000000)">
          <path d="M311.814112,120.598039 L311.814112,136.588235 L303.824029,136.588235 L303.824029,120.872549 L286,88.5490196 L294.126665,88.5490196 L307.784925,111.95098 L321.17002,88.5490196 L329.364976,88.5490196 L311.814112,120.598039 Z M368.700765,88.3431373 C382.973647,88.3431373 394.036838,98.8431373 394.036838,112.568627 C394.036838,126.294118 382.973647,136.931373 368.700765,136.931373 C354.427883,136.931373 343.364693,126.294118 343.364693,112.568627 C343.364693,98.7745098 354.427883,88.3431373 368.700765,88.3431373 Z M368.769056,95.6176471 C359.344857,95.6176471 351.559649,103.029412 351.559649,112.568627 C351.559649,122.107843 359.413148,129.656863 368.769056,129.656863 C378.124965,129.656863 385.77359,122.107843 385.77359,112.568627 C385.77359,103.029412 378.124965,95.6176471 368.769056,95.6176471 Z M456.933126,88.5490196 L456.933126,116.686275 C456.933126,129.245098 449.079626,136.931373 436.17257,136.931373 C423.265514,136.931373 415.343723,129.245098 415.343723,116.686275 L415.343723,88.5490196 L423.402097,88.5490196 L423.402097,116.686275 C423.402097,124.784314 428.387362,129.656863 436.240861,129.656863 C444.02607,129.656863 448.874752,124.852941 448.874752,116.686275 L448.874752,88.5490196 L456.933126,88.5490196 Z M512.453953,136.588235 L503.712666,122.039216 C503.029753,122.107843 502.278549,122.107843 501.527345,122.107843 L490.190989,122.107843 L490.190989,136.588235 L482.132615,136.588235 L482.132615,88.5490196 L501.527345,88.5490196 C513.751488,88.5490196 520.785492,94.5196078 520.785492,104.95098 C520.785492,112.637255 517.234344,118.058824 510.883253,120.529412 L521.604987,136.588235 L512.453953,136.588235 Z M490.190989,114.833333 L501.527345,114.833333 C508.902805,114.833333 513.136866,111.676471 513.136866,105.156863 C513.136866,98.8431373 508.902805,95.8235294 501.527345,95.8235294 L490.190989,95.8235294 L490.190989,114.833333 Z M543.663077,88.5490196 L566.267498,88.5490196 C576.989232,88.5490196 583.818362,93.2156863 583.818362,100.558824 C583.818362,105.637255 580.676962,109.686275 575.623406,111.127451 C581.633041,112.294118 585.457353,117.029412 585.457353,123.27451 C585.457353,131.441176 578.355058,136.588235 567.086993,136.588235 L543.663077,136.588235 L543.663077,88.5490196 Z M555.750638,97.8823529 L555.750638,107.764706 L565.584585,107.764706 C569.135733,107.764706 571.389345,105.843137 571.389345,102.754902 C571.389345,99.6666667 569.135733,97.8823529 565.584585,97.8823529 L555.750638,97.8823529 Z M555.750638,116.54902 L555.750638,127.186275 L565.584585,127.186275 C570.091811,127.186275 572.891754,125.196078 572.891754,121.764706 C572.891754,118.539216 570.091811,116.54902 565.584585,116.54902 L555.750638,116.54902 Z M637.905072,127.735294 L617.007934,127.735294 L613.525078,136.588235 L601.02777,136.588235 L621.651743,88.5490196 L634.149051,88.5490196 L654.294984,136.588235 L641.319637,136.588235 L637.905072,127.735294 Z M634.353925,118.470588 L627.524795,100.696078 L620.559082,118.470588 L634.353925,118.470588 Z M690.557665,88 C697.455086,88 704.48909,90.127451 709.406064,93.3529412 L704.830547,102.892157 C699.776991,99.9411765 693.4259,97.8823529 689.533296,97.8823529 C686.391896,97.8823529 684.274865,99.0490196 684.274865,101.382353 C684.274865,109.686275 709.542647,104.95098 709.542647,122.313725 C709.542647,131.921569 701.074525,137 690.421082,137 C682.431,137 674.236044,133.980392 668.567866,129.313725 L673.279966,119.911765 C678.19694,124.235294 685.5724,127.117647 690.557665,127.117647 C694.381978,127.117647 696.772173,125.676471 696.772173,122.931373 C696.772173,114.421569 671.504392,119.5 671.504392,102.480392 C671.504392,93.627451 679.084727,88 690.557665,88 Z M767.248796,98.1568627 L741.981014,98.1568627 L741.981014,107.696078 L764.790309,107.696078 L764.790309,117.303922 L741.981014,117.303922 L741.981014,126.980392 L768,126.980392 L768,136.588235 L729.825163,136.588235 L729.825163,88.5490196 L767.248796,88.5490196 L767.248796,98.1568627 Z" id="YourBase" fill="#204A85"></path>
          <g>
              <path d="M112.5,225 C50.3679656,225 0,174.632034 0,112.5 C0,50.3679656 50.3679656,0 112.5,0 C174.632034,0 225,50.3679656 225,112.5 C225,174.632034 174.632034,225 112.5,225 Z M112.5,210.638298 C166.700285,210.638298 210.638298,166.700285 210.638298,112.5 C210.638298,58.2997147 166.700285,14.3617021 112.5,14.3617021 C58.2997147,14.3617021 14.3617021,58.2997147 14.3617021,112.5 C14.3617021,166.700285 58.2997147,210.638298 112.5,210.638298 Z" fill="#204A85" fillRule="nonzero"></path>
              <g transform="translate(38.000000, 49.000000)">
                  <path d="M29.1373984,135.372811 C40.3474203,117.856551 48.7549367,104.719357 54.3599476,95.9612267 C63.4655396,81.7332512 77.1239276,60.3912881 95.3351117,31.9353373 C96.429518,30.2252687 98.7393313,29.7035149 100.494224,30.7699674 C100.978845,31.0644727 101.387916,31.4630947 101.690141,31.9353373 C121.401883,62.7359915 136.18569,85.8364821 146.041562,101.236809 C148.65182,105.497002 148.173167,108.71323 145.88889,112.212481 C130.687042,134.693942 104.989984,149.468091 75.8495576,149.468091 C58.5802905,149.468091 42.5203383,144.279392 29.1373984,135.372811 Z" fill="#4F90EC"></path>
                  <path d="M24.553927,59.3037581 C25.6483333,57.5936896 27.9581466,57.0719357 29.7130394,58.1383882 C30.1976604,58.4328935 30.606731,58.8315155 30.9089559,59.3037581 L88.0515926,148.59219 C84.0673916,149.169351 79.9932879,149.468091 75.8495576,149.468091 C44.2271356,149.468091 16.6596295,132.070027 2.15860392,106.30462 C0.0225673831,102.325743 -0.926324906,99.6069849 1.7325936,94.9633143 C6.80400103,87.0389685 14.4111122,75.1524498 24.553927,59.3037581 Z" fill="#204A85"></path>
                  <path d="M54.3644395,95.9542079 L88.0515926,148.59219 C84.0673916,149.169351 79.9932879,149.468091 75.8495576,149.468091 C58.5802905,149.468091 42.5203383,144.279392 29.1373984,135.372811 L54.3644395,95.9542079 Z" fill="#09297B"></path>
                  <path d="M124.458054,13.8456337 L99.8749396,22.082426 C98.3706758,22.586443 96.7435092,21.7729906 96.2405613,20.2655292 C96.1424412,19.9714386 96.0923934,19.6633898 96.0923536,19.3532966 L96.0902341,2.87839427 C96.0900296,1.28890594 97.3756655,0.000204939371 98.9617822,2.39175853e-08 C99.2714874,-3.99878826e-05 99.5791602,0.050122154 99.8728806,0.14854307 L124.458115,8.38665309 C125.962368,8.89070356 126.774058,10.5213471 126.271077,12.0287974 C125.985011,12.8861459 125.313591,13.5589786 124.458054,13.8456337 Z" fill="#E53945"></path>
              </g>
          </g>
      </g>
  </g>
</svg>
